# MagicaVoxel @ Ephtracy

# group
g Truck

# material
mtllib Truck.mtl
usemtl palette

# normals
vn -1 0 0
vn 1 0 0
vn 0 0 1
vn 0 0 -1
vn 0 -1 0
vn 0 1 0

# texcoords
vt 0.845703 0.5
vt 0.849609 0.5
vt 0.943359 0.5
vt 0.958984 0.5
vt 0.994141 0.5

# verts
v -29 6 -9
v -29 6 -11
v -29 6 -15
v -29 6 -17
v -29 7 -8
v -29 7 -9
v -29 7 -11
v -29 7 -15
v -29 7 -17
v -29 7 -18
v -29 8 -9
v -29 8 -11
v -29 8 -15
v -29 8 -17
v -29 12 -8
v -29 12 -9
v -29 12 -18
v -28 7 -6
v -28 7 -8
v -28 9 -6
v -28 9 -7
v -28 9 -8
v -28 11 -7
v -28 11 -8
v -24 6 -9
v -24 6 -11
v -24 6 -15
v -24 6 -17
v -24 7 -9
v -24 7 -11
v -24 7 -15
v -24 7 -17
v -24 8 -9
v -24 8 -11
v -24 8 -15
v -24 8 -17
v -28 6 -9
v -28 6 -11
v -28 6 -15
v -28 6 -17
v -28 7 -9
v -28 7 -11
v -28 7 -15
v -28 7 -17
v -28 8 -9
v -28 8 -11
v -28 8 -15
v -28 8 -17
v -24 7 -6
v -24 7 -8
v -24 9 -6
v -24 9 -7
v -24 9 -8
v -24 11 -7
v -24 11 -8
v -23 6 -9
v -23 6 -11
v -23 6 -15
v -23 6 -17
v -23 7 -8
v -23 7 -9
v -23 7 -11
v -23 7 -15
v -23 7 -17
v -23 7 -18
v -23 8 -9
v -23 8 -11
v -23 8 -15
v -23 8 -17
v -23 12 -8
v -23 12 -9
v -23 12 -18
v -28 7 -6
v -28 9 -6
v -24 7 -6
v -24 9 -6
v -28 9 -7
v -28 11 -7
v -24 9 -7
v -24 11 -7
v -29 7 -8
v -29 12 -8
v -28 7 -8
v -28 9 -8
v -28 11 -8
v -28 12 -8
v -24 7 -8
v -24 9 -8
v -24 11 -8
v -24 12 -8
v -23 7 -8
v -23 12 -8
v -29 6 -9
v -29 7 -9
v -28 6 -9
v -28 7 -9
v -24 6 -9
v -24 7 -9
v -23 6 -9
v -23 7 -9
v -29 6 -15
v -29 7 -15
v -28 6 -15
v -28 7 -15
v -24 6 -15
v -24 7 -15
v -23 6 -15
v -23 7 -15
v -28 7 -17
v -28 8 -17
v -24 7 -17
v -24 8 -17
v -28 7 -9
v -28 8 -9
v -24 7 -9
v -24 8 -9
v -29 6 -11
v -29 7 -11
v -28 6 -11
v -28 7 -11
v -24 6 -11
v -24 7 -11
v -23 6 -11
v -23 7 -11
v -29 6 -17
v -29 7 -17
v -28 6 -17
v -28 7 -17
v -24 6 -17
v -24 7 -17
v -23 6 -17
v -23 7 -17
v -29 7 -18
v -29 12 -18
v -23 7 -18
v -23 12 -18
v -29 6 -9
v -28 6 -9
v -24 6 -9
v -23 6 -9
v -29 6 -11
v -28 6 -11
v -24 6 -11
v -23 6 -11
v -29 6 -15
v -28 6 -15
v -24 6 -15
v -23 6 -15
v -29 6 -17
v -28 6 -17
v -24 6 -17
v -23 6 -17
v -28 7 -6
v -24 7 -6
v -29 7 -8
v -28 7 -8
v -24 7 -8
v -23 7 -8
v -29 7 -9
v -28 7 -9
v -24 7 -9
v -23 7 -9
v -29 7 -11
v -28 7 -11
v -24 7 -11
v -23 7 -11
v -29 7 -15
v -28 7 -15
v -24 7 -15
v -23 7 -15
v -29 7 -17
v -28 7 -17
v -24 7 -17
v -23 7 -17
v -29 7 -18
v -23 7 -18
v -28 8 -9
v -24 8 -9
v -28 8 -11
v -24 8 -11
v -28 8 -15
v -24 8 -15
v -28 8 -17
v -24 8 -17
v -28 9 -6
v -24 9 -6
v -28 9 -7
v -24 9 -7
v -28 11 -7
v -24 11 -7
v -28 11 -8
v -24 11 -8
v -29 12 -8
v -28 12 -8
v -24 12 -8
v -23 12 -8
v -29 12 -9
v -28 12 -9
v -24 12 -9
v -23 12 -9
v -29 12 -18
v -23 12 -18

# faces
f 6/5/1 2/5/1 1/5/1
f 7/5/1 2/5/1 6/5/1
f 8/5/1 4/5/1 3/5/1
f 9/5/1 4/5/1 8/5/1
f 11/5/1 7/5/1 6/5/1
f 11/3/1 6/3/1 5/3/1
f 12/2/1 8/2/1 7/2/1
f 12/5/1 7/5/1 11/5/1
f 13/5/1 9/5/1 8/5/1
f 13/2/1 8/2/1 12/2/1
f 14/2/1 10/2/1 9/2/1
f 14/5/1 9/5/1 13/5/1
f 15/3/1 11/3/1 5/3/1
f 16/2/1 13/2/1 12/2/1
f 16/3/1 11/3/1 15/3/1
f 16/2/1 12/2/1 11/2/1
f 16/2/1 14/2/1 13/2/1
f 17/2/1 10/2/1 14/2/1
f 17/2/1 14/2/1 16/2/1
f 20/3/1 19/3/1 18/3/1
f 21/3/1 19/3/1 20/3/1
f 22/3/1 19/3/1 21/3/1
f 23/4/1 22/4/1 21/4/1
f 24/4/1 22/4/1 23/4/1
f 29/5/1 26/5/1 25/5/1
f 30/5/1 26/5/1 29/5/1
f 31/5/1 28/5/1 27/5/1
f 32/5/1 28/5/1 31/5/1
f 33/5/1 30/5/1 29/5/1
f 34/2/1 31/2/1 30/2/1
f 34/5/1 30/5/1 33/5/1
f 35/5/1 32/5/1 31/5/1
f 35/2/1 31/2/1 34/2/1
f 36/5/1 32/5/1 35/5/1
f 37/5/2 38/5/2 41/5/2
f 41/5/2 38/5/2 42/5/2
f 39/5/2 40/5/2 43/5/2
f 43/5/2 40/5/2 44/5/2
f 41/5/2 42/5/2 45/5/2
f 42/2/2 43/2/2 46/2/2
f 45/5/2 42/5/2 46/5/2
f 43/5/2 44/5/2 47/5/2
f 46/2/2 43/2/2 47/2/2
f 47/5/2 44/5/2 48/5/2
f 49/3/2 50/3/2 51/3/2
f 51/3/2 50/3/2 52/3/2
f 52/3/2 50/3/2 53/3/2
f 52/4/2 53/4/2 54/4/2
f 54/4/2 53/4/2 55/4/2
f 56/5/2 57/5/2 61/5/2
f 61/5/2 57/5/2 62/5/2
f 58/5/2 59/5/2 63/5/2
f 63/5/2 59/5/2 64/5/2
f 61/5/2 62/5/2 66/5/2
f 60/3/2 61/3/2 66/3/2
f 62/2/2 63/2/2 67/2/2
f 66/5/2 62/5/2 67/5/2
f 63/5/2 64/5/2 68/5/2
f 67/2/2 63/2/2 68/2/2
f 64/2/2 65/2/2 69/2/2
f 68/5/2 64/5/2 69/5/2
f 60/3/2 66/3/2 70/3/2
f 67/2/2 68/2/2 71/2/2
f 70/3/2 66/3/2 71/3/2
f 66/2/2 67/2/2 71/2/2
f 68/2/2 69/2/2 71/2/2
f 69/2/2 65/2/2 72/2/2
f 71/2/2 69/2/2 72/2/2
f 75/3/3 74/3/3 73/3/3
f 76/3/3 74/3/3 75/3/3
f 79/4/3 78/4/3 77/4/3
f 80/4/3 78/4/3 79/4/3
f 83/3/3 82/3/3 81/3/3
f 84/3/3 82/3/3 83/3/3
f 85/3/3 82/3/3 84/3/3
f 86/3/3 82/3/3 85/3/3
f 89/2/3 86/2/3 85/2/3
f 90/2/3 86/2/3 89/2/3
f 91/3/3 88/3/3 87/3/3
f 91/3/3 89/3/3 88/3/3
f 91/3/3 90/3/3 89/3/3
f 92/3/3 90/3/3 91/3/3
f 95/5/3 94/5/3 93/5/3
f 96/5/3 94/5/3 95/5/3
f 99/5/3 98/5/3 97/5/3
f 100/5/3 98/5/3 99/5/3
f 103/5/3 102/5/3 101/5/3
f 104/5/3 102/5/3 103/5/3
f 107/5/3 106/5/3 105/5/3
f 108/5/3 106/5/3 107/5/3
f 111/2/3 110/2/3 109/2/3
f 112/2/3 110/2/3 111/2/3
f 113/1/4 114/1/4 115/1/4
f 115/1/4 114/1/4 116/1/4
f 117/5/4 118/5/4 119/5/4
f 119/5/4 118/5/4 120/5/4
f 121/5/4 122/5/4 123/5/4
f 123/5/4 122/5/4 124/5/4
f 125/5/4 126/5/4 127/5/4
f 127/5/4 126/5/4 128/5/4
f 129/5/4 130/5/4 131/5/4
f 131/5/4 130/5/4 132/5/4
f 133/2/4 134/2/4 135/2/4
f 135/2/4 134/2/4 136/2/4
f 141/5/5 138/5/5 137/5/5
f 142/5/5 138/5/5 141/5/5
f 143/5/5 140/5/5 139/5/5
f 144/5/5 140/5/5 143/5/5
f 149/5/5 146/5/5 145/5/5
f 150/5/5 146/5/5 149/5/5
f 151/5/5 148/5/5 147/5/5
f 152/5/5 148/5/5 151/5/5
f 156/3/5 154/3/5 153/3/5
f 157/3/5 154/3/5 156/3/5
f 159/3/5 156/3/5 155/3/5
f 160/1/5 157/1/5 156/1/5
f 160/3/5 156/3/5 159/3/5
f 161/3/5 158/3/5 157/3/5
f 161/1/5 157/1/5 160/1/5
f 162/3/5 158/3/5 161/3/5
f 167/2/5 164/2/5 163/2/5
f 168/2/5 164/2/5 167/2/5
f 169/2/5 166/2/5 165/2/5
f 170/2/5 166/2/5 169/2/5
f 175/2/5 172/2/5 171/2/5
f 175/2/5 174/2/5 173/2/5
f 175/2/5 173/2/5 172/2/5
f 176/2/5 174/2/5 175/2/5
f 179/1/5 178/1/5 177/1/5
f 180/1/5 178/1/5 179/1/5
f 181/1/5 180/1/5 179/1/5
f 182/1/5 180/1/5 181/1/5
f 183/1/5 182/1/5 181/1/5
f 184/1/5 182/1/5 183/1/5
f 185/3/6 186/3/6 187/3/6
f 187/3/6 186/3/6 188/3/6
f 189/4/6 190/4/6 191/4/6
f 191/4/6 190/4/6 192/4/6
f 193/3/6 194/3/6 197/3/6
f 194/2/6 195/2/6 198/2/6
f 197/3/6 194/3/6 198/3/6
f 195/3/6 196/3/6 199/3/6
f 198/2/6 195/2/6 199/2/6
f 199/3/6 196/3/6 200/3/6
f 197/2/6 198/2/6 201/2/6
f 198/2/6 199/2/6 201/2/6
f 199/2/6 200/2/6 201/2/6
f 201/2/6 200/2/6 202/2/6
